<?xml version="1.0" encoding="utf-8"?>
<!-- Generator: Adobe Illustrator 26.0.2, SVG Export Plug-In . SVG Version: 6.00 Build 0)  -->
<svg version="1.1" id="Warstwa_1" xmlns="http://www.w3.org/2000/svg" xmlns:xlink="http://www.w3.org/1999/xlink" x="0px" y="0px"
	 viewBox="0 0 430 430" style="enable-background:new 0 0 430 430;" xml:space="preserve">
<style type="text/css">
	.st0{fill:url(#SVGID_1_);}
	.st1{fill:url(#SVGID_00000042707531136081690640000016515131267485898637_);}
	.st2{fill:url(#SVGID_00000005268408371783185670000013302941615318458301_);}
	.st3{fill:url(#SVGID_00000127741871026829736080000013188142101292828080_);}
	.st4{fill:url(#SVGID_00000031209268352251291100000016046786664536701579_);}
	.st5{fill:url(#SVGID_00000181086546515769199710000000922662197658829746_);}
	.st6{fill:url(#SVGID_00000021827945229767977810000016450239784742868899_);}
	.st7{fill:url(#SVGID_00000162336694204717685950000009418812713930943906_);}
	.st8{fill:url(#SVGID_00000159450802834192652320000003079638513167820952_);}
	.st9{fill:url(#SVGID_00000075147381920000817390000004726048080129651628_);}
	.st10{fill:url(#SVGID_00000000922330533601704400000014357887918869784504_);}
	.st11{fill:url(#SVGID_00000078040265156926856390000011748970079567352193_);}
	.st12{fill:url(#SVGID_00000165925621560404337120000003433186047327079080_);}
	.st13{fill:url(#SVGID_00000140725157105643049340000015449999243571502008_);}
	.st14{fill:url(#SVGID_00000096762254982085999010000015084164471738776991_);}
	.st15{fill:url(#SVGID_00000172403530194177864640000000019182410358495661_);}
	.st16{fill:url(#SVGID_00000165926241578424088850000010228635102656539056_);}
	.st17{fill:url(#SVGID_00000097462001986014010370000001781001825416039103_);}
	.st18{fill:url(#SVGID_00000029047371729048659940000007750073225502616195_);}
	.st19{fill:url(#SVGID_00000119091462059199160500000005525759024967420322_);}
	.st20{fill:url(#SVGID_00000147213705904569713070000017175125065215592084_);}
	.st21{fill:url(#SVGID_00000060006606396820099310000013674279385827504017_);}
	.st22{fill:url(#SVGID_00000150069937382702890870000013833564504515804339_);}
	.st23{fill:url(#SVGID_00000144314297923435153960000006826917530817662383_);}
	.st24{fill:none;}
	.st25{fill:url(#SVGID_00000048490621290233232590000005165073931202205607_);}
	.st26{fill:url(#SVGID_00000071537564009142879910000001588362945723198596_);}
	.st27{fill:url(#SVGID_00000049218890833957513320000016454386784365307274_);}
	.st28{fill:url(#SVGID_00000111874676956144118820000004663137202444902829_);}
	.st29{fill:url(#SVGID_00000137123359970754560080000013911914015720772779_);}
	.st30{fill:url(#SVGID_00000086662211605261410180000007417842055232165301_);}
	.st31{fill:url(#SVGID_00000033353579067979981170000005915928367963801739_);}
	.st32{fill:url(#SVGID_00000157288709642838417860000000806966195190537611_);}
	.st33{fill:url(#SVGID_00000163049511715199123760000005340497906000011666_);}
	.st34{fill:url(#SVGID_00000093867542228003513310000014420736352262408849_);}
	.st35{fill:url(#SVGID_00000070813132654996472210000005521254024684043691_);}
	.st36{fill:url(#SVGID_00000083056623445263078200000007205487594147937185_);}
	.st37{fill:url(#SVGID_00000107565394785263842080000017151843284206242450_);}
	.st38{fill:url(#SVGID_00000016759846085090288030000011298888378090762626_);}
	.st39{fill:url(#SVGID_00000147194971143226025370000011216644772090462610_);}
	.st40{fill:url(#SVGID_00000107570809665048007350000004907883734617435056_);}
	.st41{fill:url(#SVGID_00000067953391376598060320000012797502042308187036_);}
	.st42{fill:url(#SVGID_00000099656643134342181630000016061010673401914031_);}
</style>
<linearGradient id="SVGID_1_" gradientUnits="userSpaceOnUse" x1="105.532" y1="142.1044" x2="322.5018" y2="359.0741">
	<stop  offset="0" style="stop-color:#cb5eee"/>
	<stop  offset="1" style="stop-color:#4be1ec"/>
</linearGradient>
<path class="st0" d="M379.99,196.11c-9.85-14.18-23.35-25.16-39.15-31.87c-19.98-44.38-63.99-72.92-112.81-72.92
	c-44.71,0-85.46,23.83-107.48,62.5c-0.65-0.13-1.3-0.24-1.96-0.34c-0.11-0.02-0.22-0.03-0.32-0.04c-0.53-0.08-1.06-0.14-1.59-0.2
	c-0.16-0.02-0.33-0.03-0.49-0.05c-0.5-0.05-1-0.08-1.51-0.11c-0.15-0.01-0.31-0.02-0.46-0.03c-0.64-0.03-1.28-0.05-1.92-0.05
	c0,0-0.01,0-0.01,0c-0.01,0-0.01,0-0.02,0c-23.5,0-42.62,19.12-42.62,42.62c0,1.56,0.09,3.14,0.27,4.72
	c-22.36,13.47-36.08,37.54-36.08,63.81c0,41.1,33.44,74.53,74.53,74.53h196.95c50.09,0,90.85-40.75,90.85-90.84
	C396.16,229.23,390.57,211.34,379.99,196.11z M305.32,326.69H108.37c-34.48,0-62.53-28.05-62.53-62.53
	c0-23.27,12.83-44.47,33.47-55.34c2.39-1.26,3.64-3.96,3.07-6.59c-0.49-2.22-0.73-4.44-0.73-6.6c0-16.89,13.74-30.62,30.62-30.62
	c3.2,0,6.38,0.51,9.45,1.5c8.84,2.88,16.14,9.72,19.41,18.79c0.88,2.44,3.19,3.96,5.64,3.96c0.68,0,1.36-0.12,2.04-0.36
	c3.12-1.12,4.73-4.56,3.61-7.68c-3.7-10.25-11.1-18.44-20.34-23.31c20.12-33.83,56.31-54.59,95.96-54.59
	c44.83,0,85.18,26.66,102.77,67.91c0.08,0.2,0.2,0.37,0.31,0.56c5.75,13.69,8.68,28.22,8.68,43.23c0,0.12-0.04,11.86-4.05,26.04
	c-0.9,3.19,0.95,6.5,4.14,7.41c0.55,0.15,1.1,0.23,1.64,0.23c2.62,0,5.02-1.73,5.77-4.37c4.49-15.88,4.5-28.79,4.5-29.31
	c0-11.66-1.6-23.06-4.75-34.08c22.93,14.2,37.13,39.17,37.13,66.92C384.16,291.32,348.79,326.69,305.32,326.69z"/>
</svg>
